<svg width="32" height="32" viewBox="0 0 32 32" fill="none" xmlns="http://www.w3.org/2000/svg">
<circle cx="16" cy="16" r="16" fill="black"/>
<path fill-rule="evenodd" clip-rule="evenodd" d="M16 2C8.26801 2 2 8.26801 2 16C2 23.732 8.26801 30 16 30C23.732 30 30 23.732 30 16H16V2Z" fill="#D3E5FF"/>
<circle cx="16" cy="16" r="5" fill="black"/>
<rect x="16" y="14" width="7" height="16" fill="black"/>
<rect x="21" y="14" width="6" height="6" fill="black"/>
<rect x="22" y="24" width="1" height="5" fill="black"/>
<rect x="23" y="23" width="1" height="5" fill="black"/>
<rect x="24" y="23" width="1" height="5" fill="black"/>
<rect x="23" y="19" width="4" height="8" fill="black"/>
<rect x="26" y="15" width="4" height="8" fill="black"/>
<rect x="27" y="20" width="2" height="5" fill="black"/>
<rect x="23" y="24" width="1" height="5" fill="black"/>
<rect x="2" y="15" width="12" height="7" fill="black"/>
<rect x="3" y="17" width="12" height="7" fill="black"/>
<rect x="4" y="18" width="12" height="7" fill="black"/>
<rect x="5" y="20" width="12" height="7" fill="black"/>
<rect x="7" y="21" width="12" height="7" fill="black"/>
<rect x="8" y="22" width="12" height="7" fill="black"/>
<rect x="10" y="23" width="12" height="7" fill="black"/>
</svg>
